<svg width="46" height="46" viewBox="0 0 46 46" fill="none" xmlns="http://www.w3.org/2000/svg">
<rect width="30" height="30" rx="10" fill="#19BD7B"/>
<rect x="6" y="6" width="40" height="40" rx="10" fill="white" fill-opacity="0.57"/>
<g clip-path="url(#clip0_81_1114)">
<path d="M31.9375 35H19.9609V32.4805L24.2617 28.1328C25.1289 27.2422 25.8242 26.5 26.3477 25.9062C26.8789 25.3047 27.2617 24.7578 27.4961 24.2656C27.7383 23.7734 27.8594 23.2461 27.8594 22.6836C27.8594 22.0039 27.668 21.4961 27.2852 21.1602C26.9102 20.8164 26.4062 20.6445 25.7734 20.6445C25.1094 20.6445 24.4648 20.7969 23.8398 21.1016C23.2148 21.4062 22.5625 21.8398 21.8828 22.4023L19.9141 20.0703C20.4062 19.6484 20.9258 19.25 21.4727 18.875C22.0273 18.5 22.668 18.1992 23.3945 17.9727C24.1289 17.7383 25.0078 17.6211 26.0312 17.6211C27.1562 17.6211 28.1211 17.8242 28.9258 18.2305C29.7383 18.6367 30.3633 19.1914 30.8008 19.8945C31.2383 20.5898 31.457 21.3789 31.457 22.2617C31.457 23.207 31.2695 24.0703 30.8945 24.8516C30.5195 25.6328 29.9727 26.4062 29.2539 27.1719C28.543 27.9375 27.6836 28.7852 26.6758 29.7148L24.4727 31.7891V31.9531H31.9375V35Z" fill="black"/>
</g>
<defs>
<clipPath id="clip0_81_1114">
<rect width="20" height="20" fill="white" transform="translate(16 16)"/>
</clipPath>
</defs>
</svg>
