<svg width="46" height="46" viewBox="0 0 46 46" fill="none" xmlns="http://www.w3.org/2000/svg">
<rect width="30" height="30" rx="10" fill="#1CA7F7"/>
<rect x="6" y="6" width="40" height="40" rx="10" fill="white" fill-opacity="0.57"/>
<g clip-path="url(#clip0_81_1125)">
<path d="M31.2695 21.6992C31.2695 22.4883 31.1055 23.1719 30.7773 23.75C30.4492 24.3281 30.0039 24.8008 29.4414 25.168C28.8867 25.5352 28.2617 25.8047 27.5664 25.9766V26.0469C28.9414 26.2188 29.9844 26.6406 30.6953 27.3125C31.4141 27.9844 31.7734 28.8828 31.7734 30.0078C31.7734 31.0078 31.5273 31.9023 31.0352 32.6914C30.5508 33.4805 29.8008 34.1016 28.7852 34.5547C27.7695 35.0078 26.4609 35.2344 24.8594 35.2344C23.9141 35.2344 23.0312 35.1562 22.2109 35C21.3984 34.8516 20.6328 34.6211 19.9141 34.3086V31.2266C20.6484 31.6016 21.418 31.8867 22.2227 32.082C23.0273 32.2695 23.7773 32.3633 24.4727 32.3633C25.7695 32.3633 26.6758 32.1406 27.1914 31.6953C27.7148 31.2422 27.9766 30.6094 27.9766 29.7969C27.9766 29.3203 27.8555 28.918 27.6133 28.5898C27.3711 28.2617 26.9492 28.0117 26.3477 27.8398C25.7539 27.668 24.9219 27.582 23.8516 27.582H22.5508V24.8047H23.875C24.9297 24.8047 25.7305 24.707 26.2773 24.5117C26.832 24.3086 27.207 24.0352 27.4023 23.6914C27.6055 23.3398 27.707 22.9414 27.707 22.4961C27.707 21.8867 27.5195 21.4102 27.1445 21.0664C26.7695 20.7227 26.1445 20.5508 25.2695 20.5508C24.7227 20.5508 24.2227 20.6211 23.7695 20.7617C23.3242 20.8945 22.9219 21.0586 22.5625 21.2539C22.2031 21.4414 21.8867 21.625 21.6133 21.8047L19.9375 19.3086C20.6094 18.8242 21.3945 18.4219 22.293 18.1016C23.1992 17.7812 24.2773 17.6211 25.5273 17.6211C27.293 17.6211 28.6914 17.9766 29.7227 18.6875C30.7539 19.3984 31.2695 20.4023 31.2695 21.6992Z" fill="black"/>
</g>
<defs>
<clipPath id="clip0_81_1125">
<rect width="20" height="20" fill="white" transform="translate(16 16)"/>
</clipPath>
</defs>
</svg>
