<svg width="46" height="46" viewBox="0 0 46 46" fill="none" xmlns="http://www.w3.org/2000/svg">
<rect width="30" height="30" rx="10" fill="#CA5AC3"/>
<rect x="6" y="6" width="40" height="40" rx="10" fill="white" fill-opacity="0.57"/>
<g clip-path="url(#clip0_81_1136)">
<path d="M32.3242 31.4492H30.2617V35H26.7227V31.4492H19.4102V28.9297L26.9219 17.8672H30.2617V28.6367H32.3242V31.4492ZM26.7227 28.6367V25.7305C26.7227 25.457 26.7266 25.1328 26.7344 24.7578C26.75 24.3828 26.7656 24.0078 26.7812 23.6328C26.7969 23.2578 26.8125 22.9258 26.8281 22.6367C26.8516 22.3398 26.8672 22.1328 26.875 22.0156H26.7812C26.6328 22.3359 26.4766 22.6484 26.3125 22.9531C26.1484 23.25 25.957 23.5625 25.7383 23.8906L22.5977 28.6367H26.7227Z" fill="black"/>
</g>
<defs>
<clipPath id="clip0_81_1136">
<rect width="20" height="20" fill="white" transform="translate(16 16)"/>
</clipPath>
</defs>
</svg>
